<?xml version="1.0" encoding="UTF-8"?> <svg xmlns="http://www.w3.org/2000/svg" xmlns:xlink="http://www.w3.org/1999/xlink" id="Group_94" data-name="Group 94" width="1000" height="563" viewBox="0 0 1000 563"><defs><radialGradient id="radial-gradient" cx="0.5" cy="0.5" r="0.442" gradientUnits="objectBoundingBox"><stop offset="0" stop-color="#048897"></stop><stop offset="1" stop-color="#011b40"></stop></radialGradient></defs><g id="Group_3" data-name="Group 3"><rect id="Rectangle_1" data-name="Rectangle 1" width="1000" height="563" fill="url(#radial-gradient)"></rect><text id="LeewayHertz" transform="translate(879 532)" fill="#fff" font-size="16" font-family="Georgia" opacity="0.3"><tspan x="0" y="0">LeewayHertz</tspan></text></g><text id="W1" transform="translate(321 192)" fill="#fff" font-size="20" font-family="OpenSans-Semibold, Open Sans" font-weight="600"><tspan x="-12" y="0">W</tspan><tspan y="0" font-size="11.666" baseline-shift="-6.665999889373779">1</tspan></text><text id="W2" transform="translate(321 246)" fill="#fff" font-size="20" font-family="OpenSans-Semibold, Open Sans" font-weight="600"><tspan x="-12" y="0">W</tspan><tspan y="0" font-size="11.666" baseline-shift="-6.665999889373779">2</tspan></text><text id="W3" transform="translate(321 293)" fill="#fff" font-size="20" font-family="OpenSans-Semibold, Open Sans" font-weight="600"><tspan x="-12" y="0">W</tspan><tspan y="0" font-size="11.666" baseline-shift="-6.665999889373779">3</tspan></text><text id="Wn" transform="translate(321 342)" fill="#fff" font-size="20" font-family="OpenSans-Semibold, Open Sans" font-weight="600"><tspan x="-13" y="0">W</tspan><tspan y="0" font-size="11.666" baseline-shift="-6.665999889373779">n</tspan></text><text id="_Weights_" data-name="(Weights)" transform="translate(325 407)" fill="#fff" font-size="20" font-family="OpenSans, Open Sans"><tspan x="-43" y="0">(Weights)</tspan></text><text id="_Bias_" data-name="(Bias)" transform="translate(575 111)" fill="#fff" font-size="20" font-family="OpenSans, Open Sans"><tspan x="-25" y="0">(Bias)</tspan></text><text id="_Summation_Function_" data-name="(Summation Function)" transform="translate(500 367)" fill="#fff" font-size="20" font-family="OpenSans, Open Sans"><tspan x="-56" y="0">(Summation</tspan><tspan x="-43" y="27">Function)</tspan></text><text id="_Activation_Function_" data-name="(Activation Function)" transform="translate(701 367)" fill="#fff" font-size="20" font-family="OpenSans, Open Sans"><tspan x="-48" y="0">(Activation</tspan><tspan x="-43" y="27">Function)</tspan></text><text id="_predicted_output_" data-name="(predicted output)" transform="translate(883 373)" fill="#fff" font-size="20" font-family="OpenSans, Open Sans"><tspan x="-47" y="0">(Predicted</tspan><tspan x="-36" y="27">Output)</tspan></text><text id="Ypred" transform="translate(883 292)" fill="#fff" font-size="36" font-family="OpenSans-Semibold, Open Sans" font-weight="600"><tspan x="-34" y="0">Y</tspan><tspan y="0" font-size="20.999" baseline-shift="-11.998800277709961">pred</tspan></text><g id="Group_84" data-name="Group 84" transform="translate(0 -20)"><text id="_Inputs_" data-name="(Inputs)" transform="translate(81 317)" fill="#fff" font-size="20" font-family="OpenSans, Open Sans"><tspan x="-35" y="0">(Inputs)</tspan></text><g id="Group_80" data-name="Group 80" transform="translate(-18 4)"><circle id="Ellipse_13" data-name="Ellipse 13" cx="24" cy="24" r="24" transform="translate(187 231)" fill="#012b4c"></circle><text id="X2" transform="translate(211 261)" fill="#fff" font-size="20" font-family="OpenSans-Semibold, Open Sans" font-weight="600"><tspan x="-9" y="0">X</tspan><tspan y="0" font-size="11.666" baseline-shift="-6.665999889373779">2</tspan></text></g><g id="Group_81" data-name="Group 81" transform="translate(-18 8)"><circle id="Ellipse_14" data-name="Ellipse 14" cx="24" cy="24" r="24" transform="translate(187 313)" fill="#012b4c"></circle><text id="X3" transform="translate(211 342)" fill="#fff" font-size="20" font-family="OpenSans-Semibold, Open Sans" font-weight="600"><tspan x="-9" y="0">X</tspan><tspan y="0" font-size="11.666" baseline-shift="-6.665999889373779">3</tspan></text></g><g id="Group_82" data-name="Group 82" transform="translate(-18 10)"><circle id="Ellipse_15" data-name="Ellipse 15" cx="24" cy="24" r="24" transform="translate(187 397)" fill="#012b4c"></circle><text id="Xn" transform="translate(211 427)" fill="#fff" font-size="20" font-family="OpenSans-Semibold, Open Sans" font-weight="600"><tspan x="-9" y="0">X</tspan><tspan y="0" font-size="11.666" baseline-shift="-6.665999889373779">n</tspan></text></g><path id="Path_209" data-name="Path 209" d="M168,172.491H133v258h35" transform="translate(0 0.509)" fill="none" stroke="#fff" stroke-width="1.5"></path><g id="Group_79" data-name="Group 79" transform="translate(-18 1)"><circle id="Ellipse_12" data-name="Ellipse 12" cx="24" cy="24" r="24" transform="translate(187 148)" fill="#012b4c"></circle><text id="X1" transform="translate(211 178)" fill="#fff" font-size="20" font-family="OpenSans-Semibold, Open Sans" font-weight="600"><tspan x="-9" y="0">X</tspan><tspan y="0" font-size="11.666" baseline-shift="-6.665999889373779">1</tspan></text></g></g><g id="Group_85" data-name="Group 85" transform="matrix(0.883, 0.469, -0.469, 0.883, 343.214, -324.484)"><path id="Path_210" data-name="Path 210" d="M111.9,480.784H351.773" transform="translate(0 1.716)" fill="none" stroke="#fff" stroke-width="1.5"></path><path id="Polygon_26" data-name="Polygon 26" d="M6.5,0,13,10H0Z" transform="translate(357.679 476) rotate(90)" fill="#fff"></path></g><g id="Group_91" data-name="Group 91" transform="translate(507 -22.781) rotate(90)"><path id="Path_210-2" data-name="Path 210" d="M0,0H105.488" transform="translate(134.387 6.5)" fill="none" stroke="#fff" stroke-width="1.5"></path><path id="Polygon_26-2" data-name="Polygon 26" d="M6.5,0,13,10H0Z" transform="translate(245.781 0) rotate(90)" fill="#fff"></path></g><g id="Group_92" data-name="Group 92" transform="translate(385.219 275)"><path id="Path_210-3" data-name="Path 210" d="M0,0H105.488" transform="translate(134.387 6.5)" fill="none" stroke="#fff" stroke-width="1.5"></path><path id="Polygon_26-3" data-name="Polygon 26" d="M6.5,0,13,10H0Z" transform="translate(245.781 0) rotate(90)" fill="#fff"></path></g><g id="Group_93" data-name="Group 93" transform="translate(601.613 275)"><path id="Path_210-4" data-name="Path 210" d="M0,0H105.488" transform="translate(134.387 6.5)" fill="none" stroke="#fff" stroke-width="1.5"></path><path id="Polygon_26-4" data-name="Polygon 26" d="M6.5,0,13,10H0Z" transform="translate(245.781 0) rotate(90)" fill="#fff"></path></g><g id="Group_87" data-name="Group 87" transform="matrix(0.982, 0.191, -0.191, 0.982, 199.928, -257.329)"><path id="Path_210-5" data-name="Path 210" d="M111.9,480.784H322.146" transform="translate(0 1.716)" fill="none" stroke="#fff" stroke-width="1.5"></path><path id="Polygon_26-5" data-name="Polygon 26" d="M6.5,0,13,10H0Z" transform="translate(328.052 476) rotate(90)" fill="#fff"></path></g><g id="Group_88" data-name="Group 88" transform="translate(215.601 319.487) rotate(-9)"><path id="Path_210-6" data-name="Path 210" d="M0,0H210.248" transform="translate(0 6.5)" fill="none" stroke="#fff" stroke-width="1.5"></path><path id="Polygon_26-6" data-name="Polygon 26" d="M6.5,0,13,10H0Z" transform="translate(216.154 0) rotate(90)" fill="#fff"></path></g><g id="Group_86" data-name="Group 86" transform="matrix(0.899, -0.438, 0.438, 0.899, 213.715, 405.009)"><path id="Path_210-7" data-name="Path 210" d="M0,0H234.909" transform="translate(0 6.5)" fill="none" stroke="#fff" stroke-width="1.5"></path><path id="Polygon_26-7" data-name="Polygon 26" d="M6.5,0,13,10H0Z" transform="translate(240.816 0) rotate(90)" fill="#fff"></path></g><g id="Group_90" data-name="Group 90" transform="translate(37 10)"><circle id="Ellipse_16" data-name="Ellipse 16" cx="37" cy="37" r="37" transform="translate(426 56)" fill="#012b4c"></circle><text id="b" transform="translate(463 107)" fill="#fff" font-size="36" font-family="OpenSans-Semibold, Open Sans" font-weight="600"><tspan x="-11" y="0">b</tspan></text></g><g id="Group_83" data-name="Group 83" transform="translate(-12 -20)"><circle id="Ellipse_17" data-name="Ellipse 17" cx="58.5" cy="58.5" r="58.5" transform="translate(448 243)" fill="#012b4c"></circle><path id="Path_208" data-name="Path 208" d="M171.1,49.726a6.707,6.707,0,0,1-3.243,2.318,17.092,17.092,0,0,1-5.247.937H134.541l21.58-26.46L136.83,3.157h25.4c2.514,0,4.476.385,5.881,1.731s2.294,3.314,2.656,6.468h1.37L171.216,0H127.5V1.23l22.962,28.031L127.5,57.772v1.518h44.9l2.193-14.377-1.37-.38a13.588,13.588,0,0,1-2.128,5.194Z" transform="translate(355.497 271.997)" fill="#fff"></path></g><g id="Group_89" data-name="Group 89" transform="translate(-10 -20)"><rect id="Rectangle_58" data-name="Rectangle 58" width="140" height="72" transform="translate(641 266)" fill="#012b4c"></rect><text id="f" transform="translate(711 316)" fill="#fff" font-size="36" font-family="OpenSans-Semibold, Open Sans" font-weight="600"><tspan x="-6" y="0">f</tspan></text></g></svg> 